<svg xmlns="http://www.w3.org/2000/svg" viewBox="0 0 195.8 222.64"><defs><style>.cls-1{isolation:isolate;}.cls-2{fill:#4d4d4d;}</style></defs><title>мтм_2Ресурс 3</title><g id="Слой_2" data-name="Слой 2"><g id="Слой_1-2" data-name="Слой 1"><g class="cls-1"><polygon class="cls-2" points="94.98 4.09 94.98 4.91 62.41 23.84 62.41 23.02 94.98 4.09"/><polygon class="cls-2" points="79.91 37.21 79.91 38.03 55.33 23.84 55.33 23.02 79.91 37.21"/><polygon class="cls-2" points="182.23 54.47 182.23 55.29 94.98 4.91 94.98 4.09 182.23 54.47"/><polygon class="cls-2" points="86.98 37.21 86.98 38.03 32.86 69.48 32.86 68.66 86.98 37.21"/><polygon class="cls-2" points="149.69 77.5 149.68 78.31 125.01 64.07 125.01 63.25 149.69 77.5"/><polygon class="cls-2" points="189.31 54.47 189.3 55.29 149.68 78.31 149.69 77.5 189.31 54.47"/><polygon class="cls-2" points="70.89 94.7 70.89 95.51 25.79 69.47 25.79 68.66 70.89 94.7"/><polygon class="cls-2" points="125.01 63.25 125.01 64.07 70.89 95.51 70.89 94.7 125.01 63.25"/><path class="cls-2" d="M95,0,189.3,54.47l-39.61,23L125,63.25,70.9,94.7l-45.11-26L79.91,37.21,55.33,23Zm54.71,73.4,32.57-18.93L95,4.1,62.41,23,87,37.21,32.86,68.66l38,22L125,59.16,149.66,73.4"/></g><g class="cls-1"><polygon class="cls-2" points="169.86 178.65 169.16 178.24 191.53 165.32 192.24 165.73 169.86 178.65"/><polygon class="cls-2" points="140.83 195.41 140.13 195 155.53 186.11 156.23 186.52 140.83 195.41"/><polygon class="cls-2" points="166.33 184.78 165.62 184.37 165.46 135.84 166.16 136.25 166.33 184.78"/><polygon class="cls-2" points="166.11 111.42 165.4 111.01 168.93 109.3 169.63 109.71 166.11 111.42"/><polygon class="cls-2" points="104.27 216.52 103.57 216.11 125.94 203.19 126.65 203.6 104.27 216.52"/><polygon class="cls-2" points="192.24 165.73 191.53 165.32 191.25 64.25 191.95 64.66 192.24 165.73"/><polygon class="cls-2" points="137.87 201.21 137.17 200.79 129.39 156.51 130.1 156.92 137.87 201.21"/><polygon class="cls-2" points="126.5 136.25 125.79 135.84 129.31 133.45 130.01 133.86 126.5 136.25"/><polygon class="cls-2" points="148.31 124.82 147.6 124.42 152.91 82.3 153.61 82.7 148.31 124.82"/><path class="cls-2" d="M142.43,114l-.71-.41c-1.12-7.16-2.22-13.47-3.28-18.82l.7.41C140.2,100.49,141.31,106.8,142.43,114Z"/><path class="cls-2" d="M153.61,82.71l41.88-24.18.31,109.23-29.47,17-.16-48.54-6.92,52.62L137.87,201.2l-7.77-44.28.11,48.71-29.47,17-.31-109.23,41.6-24,.29,1.46c1.16,5.68,2.37,12.55,3.6,20.4l2.39,13.56Zm38.63,83L192,64.66,156.65,85l-8.05,64-6.17-35c-1.12-7.16-2.23-13.47-3.29-18.82L104,115.44l.29,101.08,22.38-12.92-.15-67.35,3.51-2.39,10.82,61.55,15.4-8.89,9.88-75.1,3.52-1.71.23,68.94,22.38-12.92"/><polygon class="cls-2" points="156.23 186.52 155.53 186.11 165.4 111.01 166.11 111.42 156.23 186.52"/><polygon class="cls-2" points="148.6 148.99 147.9 148.58 141.72 113.56 142.43 113.96 148.6 148.99"/><polygon class="cls-2" points="126.65 203.6 125.94 203.19 125.79 135.84 126.5 136.25 126.65 203.6"/><polygon class="cls-2" points="153.61 82.7 152.91 82.3 194.79 58.12 195.49 58.53 153.61 82.7"/><polygon class="cls-2" points="100.74 222.64 100.03 222.23 99.72 113 100.43 113.41 100.74 222.64"/><polygon class="cls-2" points="100.43 113.41 99.72 113 141.32 88.99 142.03 89.39 100.43 113.41"/></g><g class="cls-1"><polygon class="cls-2" points="3.56 165.95 4.26 165.54 25.64 177.88 24.93 178.29 3.56 165.95"/><polygon class="cls-2" points="38.69 186.24 39.4 185.83 54.07 194.3 53.37 194.71 38.69 186.24"/><polygon class="cls-2" points="28.62 137.42 29.33 137.01 29.17 184.01 28.46 184.42 28.62 137.42"/><polygon class="cls-2" points="25.15 112.16 25.86 111.75 29.38 113.43 28.68 113.84 25.15 112.16"/><polygon class="cls-2" points="28.68 113.84 29.38 113.43 39.4 185.83 38.69 186.24 28.68 113.84"/><polygon class="cls-2" points="66.6 202.35 67.31 201.94 88.68 214.29 87.98 214.7 66.6 202.35"/><polygon class="cls-2" points="3.84 66.66 4.54 66.25 4.26 165.54 3.56 165.95 3.84 66.66"/><polygon class="cls-2" points="63.16 157.57 63.86 157.16 57.08 200.12 56.37 200.53 63.16 157.57"/><polygon class="cls-2" points="44.04 109.51 44.74 109.1 46.88 124.57 46.18 124.98 44.04 109.51"/><polygon class="cls-2" points="63.24 132.22 63.95 131.81 67.47 134.18 66.76 134.58 63.24 132.22"/><polygon class="cls-2" points="66.76 134.58 67.47 134.18 67.31 201.94 66.6 202.35 66.76 134.58"/><path class="cls-2" d="M40.7,85.49l.71-.41c1.08,6.88,2.2,15,3.33,24l-.7.41C42.9,100.45,41.78,92.37,40.7,85.49Z"/><polygon class="cls-2" points="0.3 60.53 1.01 60.12 41.12 83.28 40.42 83.69 0.3 60.53"/><polygon class="cls-2" points="40.42 83.69 41.12 83.28 41.41 85.08 40.7 85.49 40.42 83.69"/><polygon class="cls-2" points="54.45 95.88 55.16 95.47 47.04 149.52 46.33 149.93 54.45 95.88"/><polygon class="cls-2" points="51.43 90.05 52.14 89.64 92.52 112.95 91.82 113.36 51.43 90.05"/><path class="cls-2" d="M51.43,90.05l40.39,23.31-.31,107.46L63.05,204.39l.11-46.82-6.79,43L35.7,188.6l-7.08-51.18-.16,47L0,168,.3,60.53,40.42,83.69l.28,1.8c1.08,6.88,2.2,15,3.34,24L46.18,125ZM88,214.7l.28-99.3L54.45,95.88l-8.12,54.05-5.79-41.76c-1-8.26-2-15.66-3-22.08L3.84,66.65,3.56,166,24.93,178.3l.22-66.14,3.53,1.68,10,72.4,14.68,8.47,9.87-62.49,3.52,2.36-.16,67.77L88,214.7"/><polygon class="cls-2" points="91.82 113.36 92.52 112.95 92.22 220.41 91.51 220.82 91.82 113.36"/></g></g></g></svg>